<?xml version="1.0" encoding="utf-8"?>
<!-- Generator: Adobe Illustrator 24.0.1, SVG Export Plug-In . SVG Version: 6.00 Build 0)  -->
<svg version="1.1" id="Layer_1" xmlns="http://www.w3.org/2000/svg" xmlns:xlink="http://www.w3.org/1999/xlink" x="0px" y="0px"
	 viewBox="0 0 2310.8 851.7" style="enable-background:new 0 0 2310.8 851.7;" xml:space="preserve">
<style type="text/css">
	.st0{fill-rule:evenodd;clip-rule:evenodd;fill:#58585A;}
	.st1{fill-rule:evenodd;clip-rule:evenodd;fill:#FFFFFF;}
</style>
<g>
	<path class="st0" d="M1218.9,726.8V518.1L976.3,424l127.4-123.7l-167-148.1l-47.4,90.6l1.8-87.1l-211.5,67.5l5.4,113.7l36-9.4
		l37.3,400.9l149.1-21.9l-0.2-133.8L1218.9,726.8z"/>
	<path class="st1" d="M719.5,252.4L848,214.2l7.8,132.5l94.7-133l92.5,88.1L913.7,438.1l266.2,105.4v121.3L870.6,510l0.5,162
		l-80,10.9L757,277.4l-36,9.4L719.5,252.4L719.5,252.4z"/>
	<path class="st0" d="M1694,172.2h-140.1l-3.9,23h-147.4l-68.9,421.1l168,26.5l9.3-60.5l43.9,81.1l26.8-51.7l9.8,84.8l190.6,33.6
		L1694,172.2L1694,172.2z"/>
	<path class="st1" d="M1590.7,211h71.3l72.2,469.1L1629,664.1l-28-185.6l-39.6,102.4L1502.1,453h-0.6L1478,601.1l-98.8-17.2
		l58.8-351.2h99.8l24.9,136.2L1590.7,211z"/>
	<path class="st0" d="M1872.4,210.5l210.7,46.4l15.7,77.8l17-70.2l179.3,43.5l-172.2,518.9l-132.1-41.6l-1-52l-126.8-17.7
		l42.8-380.9l-31.7-7.1L1872.4,210.5L1872.4,210.5z"/>
	<path class="st1" d="M1909.8,259.3l137.4,27.6l46.2,219.2l47.4-196.5l104.6,23.1l-147.2,445.9l-73.1-21.9l-6.4-269.5l-36.8,207.9
		l-79.8-12.7l35.8-377.5l-30.1-8L1909.8,259.3L1909.8,259.3z"/>
	<path class="st0" d="M1852,655.5c-45.5,17.1-93.9,15.1-132.8-5.5c-36-19.1-61.2-52.2-70.9-93c-19.4-81.5,34.4-174.4,120-207.2
		c46-17.3,94.8-15.3,134,5.6c35.7,18.9,60.5,51.2,70,90.9C1992.2,528.9,1938.3,622.8,1852,655.5L1852,655.5z"/>
	<path class="st1" d="M1939.1,453.7c-15.6-65.4-85.3-98.1-156.9-71.2c-69.4,26.6-114.9,101.6-99.3,167.1
		c16.1,67.5,85.2,100.2,156.8,73.2C1909.6,596.3,1955.1,520.7,1939.1,453.7L1939.1,453.7z"/>
	<path class="st0" d="M1887,465.3c-1.5,36.1-32.8,63.2-71.2,61.7c-37.7-1.5-66.8-31.2-65.3-67.2c1.4-33.9,32.7-61,71.1-59.5
		C1859.4,401.8,1888.4,431.4,1887,465.3z"/>
	<path class="st1" d="M1838.2,401.9c-23-0.9-42.2,14.9-43,35.3c-0.8,20.4,17.1,37.7,40,38.6c23,0.9,42.2-14.9,43-35.3
		C1879.1,420.1,1861.2,402.8,1838.2,401.9z"/>
	<path class="st0" d="M690.1,701c-46.6,19.8-97.1,19.7-138.4-0.2c-38.3-18.4-65.8-51.7-77.7-93.8c-23.6-83.9,28.4-182.9,116.1-220.6
		c47.1-20,97.9-19.9,139.6,0.1c37.9,18.2,65.1,50.7,76.6,91.6C830.5,563.4,778.4,663.3,690.1,701z"/>
	<path class="st1" d="M773,483.4c-19.2-68-93.7-99.3-167.6-68c-71.7,30.8-116.2,111.5-97,179.5C528.1,665,602,696.4,676,665
		C748.2,634.2,792.8,552.9,773,483.4L773,483.4z"/>
	<path class="st0" d="M723,496.4c0,36.1-30.2,64.5-68.6,64.5c-37.8,0-68-28.4-68-64.5c0-33.9,30.2-62.3,68.6-62.3
		C692.7,434.1,723,462.5,723,496.4z"/>
	<path class="st1" d="M671.7,435c-23,0-41.6,16.6-41.6,37s18.6,37,41.6,37c23,0,41.6-16.6,41.6-37S694.6,435,671.7,435z"/>
	<path class="st0" d="M433.2,575.7C533.3,502.1,581,391,544.8,307.6c-15.8-36.2-43.1-66.3-77.6-85.5c-23.9-15.9-52.3-25.8-82.2-29.2
		c-73.1-12.8-161,0.4-247.4,37.1c-30.6,12.9-60.1,28.3-88.2,46l-33.8,21.5L36.1,332l63.3,107c0,0,19.5,32.9,19.5,32.8l34.3-16.8
		l4.8-2.3L315.4,804l15.1,33.8l35.2-11.3l85.2-27.2l37.3-11.9l-9.9-37.9L433.2,575.7L433.2,575.7z"/>
	<path class="st1" d="M506.9,324c-12.5-28.9-34.2-51.6-62.5-67.5c-20.6-13.7-44.2-20.3-66.4-22.9c-63-11.1-141.6-0.6-224.1,34.4
		c-29.4,12.5-56.9,26.8-82.2,42.8l63.3,107c16.2-8,33.8-16.4,43.2-21.3l174.9,390.6l85.2-27.2l-52.6-202
		C486.4,495.7,537.3,394.3,506.9,324z"/>
	<path class="st0" d="M1401.9,426.8l-59.9-53.9l29.4-31.3l26.5-28.2l-24.4-30c-47.6-58.6-123.7-82.1-203.6-62.8
		c-111.1,26.8-173.8,122.4-149.1,227.4c9.9,42.2,36.5,78.4,74.7,102c45.7,28.1,103,35.8,161.6,21.7c61.8-14.9,107.1-39.9,147-81
		l32-33L1401.9,426.8L1401.9,426.8z"/>
	<path class="st1" d="M1309.8,401.2c-15,17.8-32.2,34-63,41.4c-10.2,2.5-24.1,4.8-32.9,3.2l128.8-137.1
		c-36.4-44.8-96-65.4-163.6-49.1c-84.1,20.3-140.8,90.2-119.8,179.4c16.9,71.8,96.2,115.7,188.3,93.5c55.8-13.4,94.5-35,129.3-70.9
		L1309.8,401.2z"/>
	<path class="st0" d="M1108.7,198.1l157.8-181.7l87.3,130.3l-199.4,107.1L1108.7,198.1z"/>
	<path class="st1" d="M1259.7,74.3l46.2,62.7l-132,65.4l-9.1-13.8L1259.7,74.3L1259.7,74.3z"/>
	<path class="st0" d="M1161.9,403.3c-12.7-23-4.3-51.8,18.7-64.5c12.3-6.8,26.9-7.8,40-2.7L1161.9,403.3z M1168.3,348.4
		c-13.7,15-16.3,37.1-6.5,54.9l58.6-67.2C1202.2,329.1,1181.5,334,1168.3,348.4L1168.3,348.4z M1253,326
		c-30.1-27.4-76.6-25.2-103.9,4.9c-27.4,30.1-25.2,76.6,4.9,103.9c2.5,2.3,5.1,4.3,7.8,6.1l96.4-109.7
		C1256.5,329.4,1254.8,327.6,1253,326z M1161.9,403.3c-12.7-23-4.3-51.8,18.7-64.5c12.3-6.8,26.9-7.8,40-2.7L1161.9,403.3z
		 M440.6,390.9c-7.5-41.4-61.4-64.6-115.2-35.7l13.5,47.4l21.3,70.1l9.7,32C410.3,479,451,448.2,440.6,390.9L440.6,390.9z
		 M387,454.1l-18.4-60.5l-5.5-19.2c11.4-2,22.4-1,31.3,3.3c5,2.4,13.7,8.1,15.6,18.7C414.4,420.2,406.2,437.1,387,454.1L387,454.1z
		 M463.6,863.1c0.1,0.3,0.2,0.7,0.4,1l0.2,0.4C464,864,463.8,863.6,463.6,863.1z"/>
	<path class="st0" d="M2160.8,779.8h38.8v5.7h-16.1v42.1h-6.5v-42.1h-16.1V779.8z M2205.4,827.6v-47.8h9.3l13.8,40.4l13.6-40.4h9.2
		v47.8h-6.2v-28.2l0.1-4.8c0.1-2.3,0.1-4.7,0.1-7.3l-13.7,40.3h-6.4l-13.7-40.3v1.5c0,1.2,0,3,0.1,5.4c0.1,2.4,0.1,4.2,0.1,5.3v28.2
		L2205.4,827.6L2205.4,827.6L2205.4,827.6z"/>
</g>
</svg>
