<?xml version="1.0" encoding="utf-8"?>
<!-- Generator: Adobe Illustrator 24.0.1, SVG Export Plug-In . SVG Version: 6.00 Build 0)  -->
<svg version="1.1" id="Layer_1" xmlns="http://www.w3.org/2000/svg" xmlns:xlink="http://www.w3.org/1999/xlink" x="0px" y="0px"
	 viewBox="0 0 209 206" style="enable-background:new 0 0 209 206;" xml:space="preserve">
<style type="text/css">
	.st0{opacity:0.2;}
	.st1{fill:#9EB5C7;}
	.st2{fill:#3F4952;}
	.st3{fill:#7A94A5;}
</style>
<g class="st0">
	<g>
		<path class="st1" d="M195.7,115c-3.9,47.2-43.5,84.3-91.7,84.3S16.3,162.2,12.3,115H71c3.6,14.9,17,26,33,26s29.5-11.1,33-26
			H195.7z"/>
	</g>
	<g>
		<path class="st2" d="M195.7,98.5h-58.7C133.2,83.8,119.8,73,104,73S74.8,83.8,71.1,98.5H12.3c3.9-47.2,43.5-84.3,91.7-84.3
			S191.7,51.3,195.7,98.5z"/>
	</g>
	<g>
		<path class="st3" d="M122,108c0,2.9-0.7,5.6-1.9,8c-2.9,5.9-9,10-16.1,10s-13.2-4.1-16.1-10c-1.2-2.4-1.9-5.1-1.9-8
			c0-3.1,0.8-6,2.1-8.5c3-5.7,9-9.5,15.9-9.5s12.8,3.8,15.9,9.5C121.2,102,122,104.9,122,108z"/>
	</g>
</g>
</svg>
